<svg xmlns="http://www.w3.org/2000/svg" xmlns:xlink="http://www.w3.org/1999/xlink" viewBox="0 0 109.99 143.64">
  <defs>
    <style>.cls-1{fill:url(#linear-gradient);}</style>
    <linearGradient id="linear-gradient" x1="64.97" y1="142.79" x2="45.02" y2="0.85" gradientUnits="userSpaceOnUse">
      <stop offset="0" stop-color="#31a8fa" />
      <stop offset="0.38" stop-color="#31a8fa" />
      <stop offset="0.48" stop-color="#5b85fb" />
      <stop offset="0.7" stop-color="#c62dfd" />
      <stop offset="0.74" stop-color="#d81efd" />
      <stop offset="0.82" stop-color="#ae1cdb" />
      <stop offset="1" stop-color="#511790" />
    </linearGradient>
  </defs>
  <g id="Layer_2" data-name="Layer 2">
    <g id="Layer_1-2" data-name="Layer 1">
      <path class="cls-1" d="M110,88.64a55,55,0,1,1-110,0,4.45,4.45,0,0,1,1.33-3.19,4.49,4.49,0,0,1,3.19-1.33H21.35a4.53,4.53,0,0,1,3.2,1.33,4.48,4.48,0,0,1,1.32,3.19h0a29,29,0,0,0,8.53,20.59l.21.22,0,0,0,0A29,29,0,0,0,55,117.79h1v-.05a29,29,0,0,0,19.57-8.48h0l0,0h0A29.11,29.11,0,0,0,73.27,66a15.9,15.9,0,0,1-6-11.65,12.33,12.33,0,0,0-21-8l0,0a12.37,12.37,0,0,0,0,17.41l.72.71,0,0a12.25,12.25,0,0,0,8,2.93h0a21.31,21.31,0,0,1,15.07,6.25h0v0a21.29,21.29,0,0,1,0,30.12h0l0,0h0A21.32,21.32,0,0,1,33.7,89.84a6.67,6.67,0,0,0-2.63-5.12A38.11,38.11,0,0,1,28,28h0l0,0A38.08,38.08,0,0,1,82,28h0v0A38.1,38.1,0,0,1,92.79,49.59l.12.88h7.83l-.14-1.15A46,46,0,0,0,9.05,55a46.73,46.73,0,0,0,.88,9,19.05,19.05,0,0,0,1.61,5.58h0a4.42,4.42,0,0,1,.35,1.73,4.51,4.51,0,0,1-8.68,1.73h0a27,27,0,0,1-2.13-7.28A55,55,0,1,1,110,55a4.52,4.52,0,0,1-4.52,4.52H88.65A4.54,4.54,0,0,1,84.12,55a29,29,0,0,0-8.51-20.6l0,0a29.18,29.18,0,0,0-41.18,0h0l0,0h0A29.25,29.25,0,0,0,28.7,67.58a29.36,29.36,0,0,0,8,10.12,15.76,15.76,0,0,1,6,11.64,12.33,12.33,0,0,0,21,8l0,0a12.35,12.35,0,0,0,0-17.39l0,0A12.26,12.26,0,0,0,55,76.34h0a21.25,21.25,0,0,1-14.94-6.11l-.15-.15h0a21.29,21.29,0,0,1,0-30.12l0,0h0A21.34,21.34,0,0,1,76.3,53.8h0A6.92,6.92,0,0,0,77,56.67a7.15,7.15,0,0,0,1.89,2.25A38.11,38.11,0,0,1,82,115.59v0l0,0h0A38.05,38.05,0,0,1,55.84,126.8H55a38.06,38.06,0,0,1-26.67-10.88l0,0,0,0a3.07,3.07,0,0,1-.26-.25,38,38,0,0,1-10.8-21.58l-.13-.88H9.25l.14,1.15a46,46,0,1,0,90.67-14.67,19.19,19.19,0,0,0-1.6-5.57h0a4.46,4.46,0,0,1-.35-1.73,4.52,4.52,0,0,1,2.78-4.17,4.46,4.46,0,0,1,1.73-.35,4.52,4.52,0,0,1,4.17,2.78h0a26.86,26.86,0,0,1,2.13,7.26A54.76,54.76,0,0,1,110,88.64ZM55,93.19a4.52,4.52,0,1,0-3.2-1.32A4.53,4.53,0,0,0,55,93.19Zm0-42.74a4.53,4.53,0,0,0-3.2,7.74,4.53,4.53,0,1,0,6.41-6.41A4.49,4.49,0,0,0,55,50.45Z" />
    </g>
  </g>
</svg>